<svg width="612" height="364" viewBox="0 0 612 364" fill="none" xmlns="http://www.w3.org/2000/svg">
<path fill-rule="evenodd" clip-rule="evenodd" d="M0 55.8496H553.877V363.34H0V55.8496Z" fill="#CBD9F5"/>
<path fill-rule="evenodd" clip-rule="evenodd" d="M27.5952 28.2544H581.472V335.745H27.5952V28.2544Z" fill="#96B4EB"/>
<path fill-rule="evenodd" clip-rule="evenodd" d="M57.1616 0.65918H611.039V308.15H57.1616V0.65918Z" fill="#2F6AD8"/>
<path d="M235.031 174.641L289.691 253.835H234.272L177.84 168.765H162.91L164.428 253.835H114.323C114.829 221.391 115.335 187.159 115.335 156.503C115.335 126.103 114.829 91.6148 114.323 58.9152H164.428L162.91 139.131H177.84L231.488 58.9152H284.883L235.031 132.745C225.921 147.051 222.125 148.328 198.085 151.649V154.97C222.884 158.036 225.415 159.569 235.031 174.641Z" fill="white"/>
<path d="M296.675 253.835C303.002 221.391 309.075 188.436 314.389 156.503C320.21 124.314 325.777 91.6148 330.585 58.9152H380.437C373.857 90.3375 368.29 122.526 362.217 156.248C356.397 190.225 350.829 222.413 346.274 253.835H296.675Z" fill="white"/>
<path d="M478.306 256.901C422.634 256.901 393.026 240.296 387.965 194.056L441.613 189.714C444.144 207.085 451.988 222.924 479.065 222.924C488.175 222.924 499.057 221.391 504.624 217.048C508.926 210.662 510.95 204.02 510.95 195.845C510.95 180.517 503.865 174.641 474.257 171.32C413.777 168.765 392.773 146.54 392.773 113.84C392.773 74.4986 427.695 55.8496 474.763 55.8496C528.917 55.8496 553.97 78.586 559.79 124.314L510.444 127.891C506.901 105.665 502.093 91.3593 472.739 91.3593C465.653 91.3593 455.784 92.3812 450.47 95.7022C445.662 102.089 442.372 109.497 442.372 118.694C442.372 135.299 451.229 140.92 478.053 144.496C545.619 148.073 559.79 166.722 559.79 198.144C559.79 235.953 525.628 256.901 478.306 256.901Z" fill="white"/>
</svg>
